<svg width="11" height="13" viewBox="0 0 11 13" fill="none" xmlns="http://www.w3.org/2000/svg">
<path d="M3.65138 7.79112L7.41888 4.02362M3.96535 4.33757H3.97163M7.10494 7.47716H7.11121M9.93054 12.1865V2.13987C9.93054 1.44629 9.36829 0.884033 8.67471 0.884033H2.39554C1.70197 0.884033 1.13971 1.44629 1.13971 2.13987V12.1865L3.33742 10.9307L5.53513 12.1865L7.73283 10.9307L9.93054 12.1865ZM4.27929 4.33757C4.27929 4.51097 4.13873 4.65153 3.96533 4.65153C3.79194 4.65153 3.65138 4.51097 3.65138 4.33757C3.65138 4.16418 3.79194 4.02362 3.96533 4.02362C4.13873 4.02362 4.27929 4.16418 4.27929 4.33757ZM7.41888 7.47716C7.41888 7.65055 7.27831 7.79112 7.10492 7.79112C6.93152 7.79112 6.79096 7.65055 6.79096 7.47716C6.79096 7.30376 6.93152 7.1632 7.10492 7.1632C7.27831 7.1632 7.41888 7.30376 7.41888 7.47716Z" stroke="white" stroke-width="1.5" stroke-linecap="round" stroke-linejoin="round"/>
</svg>
