<svg width="64" height="64" viewBox="0 0 64 64" fill="none" xmlns="http://www.w3.org/2000/svg">
<path d="M64 24C64 22.9391 63.5786 21.9217 62.8284 21.1716C62.0783 20.4214 61.0609 20 60 20C58.9391 20 57.9217 20.4214 57.1716 21.1716C56.4214 21.9217 56 22.9391 56 24C56.0039 24.9485 56.3479 25.8642 56.9694 26.5808L56.0509 44H51V42.6484C51.6507 41.5423 51.9958 40.2832 52 39V34C51.9991 33.2046 51.6828 32.4421 51.1204 31.8796C50.558 31.3172 49.7954 31.0009 49 31H44.6182L40.8945 23.5527C40.8895 23.5429 40.8801 23.5373 40.8749 23.5276C40.8655 23.5102 40.8611 23.491 40.8506 23.4741C40.7988 23.3928 40.7355 23.3193 40.6627 23.2561C40.6458 23.2411 40.627 23.2306 40.6092 23.2168C40.5329 23.1575 40.4483 23.1097 40.3582 23.0749C40.3354 23.066 40.3147 23.0551 40.2913 23.0479C40.1972 23.0174 40.099 23.0013 40 23H24C23.8143 23 23.6323 23.0517 23.4743 23.1494C23.3163 23.247 23.1886 23.3867 23.1055 23.5527L19.3818 31H15C14.2046 31.0009 13.4421 31.3172 12.8796 31.8796C12.3172 32.4421 12.0009 33.2046 12 34V39C12.0042 40.2832 12.3493 41.5423 13 42.6484V44H7.94911L7.03059 26.5808C7.65214 25.8642 7.9961 24.9485 8.00001 24C8.00457 23.3516 7.85143 22.7118 7.55379 22.1358C7.25615 21.5597 6.82294 21.0646 6.29146 20.6932C5.75998 20.3217 5.14617 20.0851 4.5029 20.0035C3.85963 19.922 3.20619 19.9981 2.59886 20.2252C1.99153 20.4524 1.44851 20.8237 1.01658 21.3073C0.584658 21.7909 0.27677 22.3723 0.119442 23.0013C-0.0378864 23.6304 -0.0399396 24.2882 0.113459 24.9182C0.266858 25.5482 0.571111 26.1315 1.00001 26.6178V63C0.999976 63.1313 1.02582 63.2614 1.07606 63.3827C1.1263 63.5041 1.19996 63.6143 1.29283 63.7072C1.38569 63.8001 1.49594 63.8737 1.61729 63.924C1.73863 63.9742 1.86868 64 2.00001 64H6.00001C6.13134 64 6.26139 63.9742 6.38273 63.924C6.50407 63.8737 6.61433 63.8001 6.70719 63.7072C6.80006 63.6143 6.87372 63.5041 6.92396 63.3827C6.9742 63.2614 7.00004 63.1313 7.00001 63V51H13V63C13 63.1313 13.0258 63.2614 13.0761 63.3827C13.1263 63.5041 13.2 63.6143 13.2928 63.7072C13.3857 63.8001 13.4959 63.8737 13.6173 63.924C13.7386 63.9742 13.8687 64 14 64H22C22.1313 64 22.2614 63.9742 22.3827 63.924C22.5041 63.8737 22.6143 63.8001 22.7072 63.7072C22.8001 63.6143 22.8737 63.5041 22.924 63.3827C22.9742 63.2614 23 63.1313 23 63V46.7745C24.2526 46.5318 25.4431 46.0383 26.5 45.3237C28.1261 46.4164 30.0409 47 32 47C33.9592 47 35.8739 46.4164 37.5 45.3237C38.5569 46.0383 39.7475 46.5318 41 46.7745V63C41 63.1313 41.0258 63.2614 41.0761 63.3827C41.1263 63.5041 41.2 63.6143 41.2928 63.7072C41.3857 63.8001 41.4959 63.8737 41.6173 63.924C41.7386 63.9742 41.8687 64 42 64H50C50.1313 64 50.2614 63.9742 50.3827 63.924C50.5041 63.8737 50.6143 63.8001 50.7072 63.7072C50.8001 63.6143 50.8737 63.5041 50.924 63.3827C50.9742 63.2614 51 63.1313 51 63V51H57V63C57 63.1313 57.0258 63.2614 57.0761 63.3827C57.1263 63.5041 57.2 63.6143 57.2928 63.7072C57.3857 63.8001 57.4959 63.8737 57.6173 63.924C57.7386 63.9742 57.8687 64 58 64H62C62.1313 64 62.2614 63.9742 62.3827 63.924C62.5041 63.8737 62.6143 63.8001 62.7072 63.7072C62.8001 63.6143 62.8737 63.5041 62.924 63.3827C62.9742 63.2614 63 63.1313 63 63V26.6178C63.6408 25.896 63.9964 24.9652 64 24ZM60 22C60.3956 22 60.7823 22.1173 61.1112 22.3371C61.4401 22.5568 61.6964 22.8692 61.8478 23.2346C61.9991 23.6001 62.0388 24.0022 61.9616 24.3902C61.8844 24.7781 61.6939 25.1345 61.4142 25.4142C61.1345 25.6939 60.7782 25.8844 60.3902 25.9616C60.0022 26.0387 59.6001 25.9991 59.2346 25.8478C58.8692 25.6964 58.5568 25.44 58.3371 25.1111C58.1173 24.7822 58 24.3956 58 24C58.0006 23.4698 58.2115 22.9614 58.5865 22.5865C58.9614 22.2115 59.4698 22.0006 60 22ZM58.9071 27.8291C59.5863 28.0466 60.315 28.0567 61 27.858V44H58.0537L58.9071 27.8291ZM40 26.2363L42.3819 31H37.6182L40 26.2363ZM24.6182 25H38.3819L35.3819 31H21.6182L24.6182 25ZM3.00001 27.858C3.3259 27.9479 3.66198 27.9956 4.00001 28C4.37053 27.9946 4.73844 27.9371 5.09291 27.8291L5.9463 44H3.00001V27.858ZM4.00001 22C4.39557 22 4.78225 22.1173 5.11115 22.3371C5.44005 22.5568 5.69639 22.8692 5.84777 23.2346C5.99914 23.6001 6.03875 24.0022 5.96158 24.3902C5.88441 24.7781 5.69393 25.1345 5.41422 25.4142C5.13452 25.6939 4.77815 25.8844 4.39019 25.9616C4.00223 26.0387 3.6001 25.9991 3.23464 25.8478C2.86919 25.6964 2.55683 25.44 2.33707 25.1111C2.11731 24.7822 2.00001 24.3956 2.00001 24C2.00062 23.4698 2.21152 22.9614 2.58647 22.5865C2.96141 22.2115 3.46976 22.0006 4.00001 22ZM5.00001 62H3.00001V51H5.00001V62ZM3.00001 49V46H13V49H3.00001ZM15 44.946C15.6122 45.4332 16.2844 45.8398 17 46.1559V62H15V44.946ZM21 62H19V51H21V62ZM21 49H19V46.794C19.6581 46.9294 20.3281 46.9984 21 47V49ZM37.5 43.0698C37.2663 43.0696 37.0399 43.1516 36.8604 43.3013C35.4791 44.4011 33.7657 45 32 45C30.2344 45 28.5209 44.4011 27.1397 43.3013C26.9601 43.1517 26.7337 43.0698 26.5 43.0698C26.2663 43.0698 26.04 43.1517 25.8604 43.3013C24.4877 44.4165 22.7686 45.0174 21 45C17.1406 45 14 42.3086 14 39V38H41C41.2652 38 41.5196 37.8946 41.7071 37.7071C41.8947 37.5196 42 37.2652 42 37C42 36.7348 41.8947 36.4804 41.7071 36.2929C41.5196 36.1054 41.2652 36 41 36H14V34C14.0003 33.7349 14.1057 33.4807 14.2932 33.2932C14.4807 33.1057 14.7349 33.0003 15 33H49C49.2651 33.0003 49.5193 33.1057 49.7068 33.2932C49.8943 33.4807 49.9997 33.7349 50 34V36H45C44.7348 36 44.4804 36.1054 44.2929 36.2929C44.1054 36.4804 44 36.7348 44 37C44 37.2652 44.1054 37.5196 44.2929 37.7071C44.4804 37.8946 44.7348 38 45 38H50V39C50 42.3086 46.8594 45 43 45C41.2315 45.0174 39.5124 44.4165 38.1397 43.3013C37.9602 43.1516 37.7338 43.0696 37.5 43.0698ZM45 46.794V49H43V47C43.6719 46.9984 44.3419 46.9294 45 46.794ZM43 51H45V62H43V51ZM49 62H47V46.1559C47.7157 45.8398 48.3878 45.4331 49 44.946V62ZM51 46H61V49H51V46ZM61 62H59V51H61V62Z" fill="#fff"/>
<path d="M32 27H28C27.7348 27 27.4804 27.1054 27.2929 27.2929C27.1054 27.4804 27 27.7348 27 28C27 28.2652 27.1054 28.5196 27.2929 28.7071C27.4804 28.8946 27.7348 29 28 29H32C32.2652 29 32.5196 28.8946 32.7071 28.7071C32.8946 28.5196 33 28.2652 33 28C33 27.7348 32.8946 27.4804 32.7071 27.2929C32.5196 27.1054 32.2652 27 32 27Z" fill="#fff"/>
<path d="M22 15H42C42.1313 15 42.2614 14.9742 42.3827 14.9239C42.5041 14.8737 42.6143 14.8 42.7072 14.7072C42.8 14.6143 42.8737 14.5041 42.924 14.3827C42.9742 14.2614 43 14.1313 43 14C42.9962 11.2574 41.9689 8.61485 40.1194 6.5897C38.2698 4.56455 35.7311 3.30254 33 3.05066V1C33 0.734784 32.8946 0.48043 32.7071 0.292893C32.5196 0.105357 32.2652 0 32 0C31.7348 0 31.4804 0.105357 31.2929 0.292893C31.1054 0.48043 31 0.734784 31 1V3.05066C28.2689 3.30254 25.7302 4.56455 23.8806 6.5897C22.0311 8.61485 21.0038 11.2574 21 14C21 14.1313 21.0258 14.2614 21.0761 14.3827C21.1263 14.5041 21.2 14.6143 21.2928 14.7072C21.3857 14.8 21.4959 14.8737 21.6173 14.9239C21.7386 14.9742 21.8687 15 22 15ZM32 5C34.213 5.00273 36.3477 5.8196 37.9972 7.29495C39.6467 8.7703 40.6957 10.801 40.9443 13H23.0557C23.3043 10.801 24.3533 8.7703 26.0028 7.29495C27.6523 5.8196 29.787 5.00273 32 5Z" fill="#fff"/>
</svg>
